<?xml version="1.0" encoding="UTF-8"?>
<svg width="36px" height="23px" viewBox="0 0 36 23" version="1.1" xmlns="http://www.w3.org/2000/svg" xmlns:xlink="http://www.w3.org/1999/xlink">
    <!-- Generator: Sketch 52.5 (67469) - http://www.bohemiancoding.com/sketch -->
    <title>behance</title>
    <desc>Created with Sketch.</desc>
    <g id="desktop" stroke="none" stroke-width="1" fill="none" fill-rule="evenodd">
        <g id="forside-(helst-denne)" transform="translate(-439.000000, -2240.000000)" fill="#FFFFFF" fill-rule="nonzero">
            <g id="Group-3" transform="translate(0.000000, 2183.000000)">
                <g id="behance" transform="translate(439.000000, 57.000000)">
                    <path d="M14.5,10.3055249 C16.4875,9.33977901 17.525,7.87845304 17.525,5.6038674 C17.525,1.11823204 14.2375,0.0254143646 10.44375,0.0254143646 L0,0.0254143646 L0,22.5425414 L10.7375,22.5425414 C14.7625,22.5425414 18.54375,20.5792818 18.54375,16.0046961 C18.54375,13.1773481 17.225,11.0870166 14.5,10.3055249 Z M4.86875,3.86933702 L9.4375,3.86933702 C11.19375,3.86933702 12.775,4.37127072 12.775,6.44254144 C12.775,8.35497238 11.54375,9.12375691 9.80625,9.12375691 L4.86875,9.12375691 L4.86875,3.86933702 Z M10.075,18.7176796 L4.86875,18.7176796 L4.86875,12.5165746 L10.175,12.5165746 C12.31875,12.5165746 13.675,13.4251381 13.675,15.7314917 C13.675,18.0060773 12.05625,18.7176796 10.075,18.7176796 Z M32.48125,3.42458564 L23.5,3.42458564 L23.5,1.20718232 L32.48125,1.20718232 L32.48125,3.42458564 Z M36,14.6259669 C36,9.80359116 33.225,5.78176796 28.19375,5.78176796 C23.30625,5.78176796 19.9875,9.51767956 19.9875,14.4099448 C19.9875,19.4864641 23.13125,22.968232 28.19375,22.968232 C32.025,22.968232 34.50625,21.2146409 35.7,17.4850829 L31.8125,17.4850829 C31.39375,18.8765193 29.66875,19.6135359 28.33125,19.6135359 C25.75,19.6135359 24.39375,18.0759669 24.39375,15.4646409 L35.9625,15.4646409 C35.98125,15.1977901 36,14.9118785 36,14.6259669 Z M24.4,12.6436464 C24.54375,10.5024862 25.94375,9.16187845 28.05625,9.16187845 C30.26875,9.16187845 31.38125,10.4834254 31.56875,12.6436464 L24.4,12.6436464 Z" id="Shape"></path>
                </g>
            </g>
        </g>
    </g>
</svg>