<?xml version="1.0" encoding="UTF-8"?>
<svg width="29px" height="29px" viewBox="0 0 29 29" version="1.1" xmlns="http://www.w3.org/2000/svg" xmlns:xlink="http://www.w3.org/1999/xlink">
    <!-- Generator: Sketch 52.5 (67469) - http://www.bohemiancoding.com/sketch -->
    <title>instagram</title>
    <desc>Created with Sketch.</desc>
    <g id="desktop" stroke="none" stroke-width="1" fill="none" fill-rule="evenodd">
        <g id="forside-(helst-denne)" transform="translate(-375.000000, -2237.000000)" fill="#FFFFFF" fill-rule="nonzero">
            <g id="Group-3" transform="translate(0.000000, 2183.000000)">
                <g id="instagram" transform="translate(375.000000, 54.000000)">
                    <path d="M14.5064444,7.10467706 C10.4077778,7.10467706 7.10177778,10.4180401 7.10177778,14.5258352 C7.10177778,18.6336303 10.4077778,21.9469933 14.5064444,21.9469933 C18.6051111,21.9469933 21.9111111,18.6336303 21.9111111,14.5258352 C21.9111111,10.4180401 18.6051111,7.10467706 14.5064444,7.10467706 Z M14.5064444,19.3505568 C11.8577778,19.3505568 9.69244444,17.1868597 9.69244444,14.5258352 C9.69244444,11.8648107 11.8513333,9.70111359 14.5064444,9.70111359 C17.1615556,9.70111359 19.3204444,11.8648107 19.3204444,14.5258352 C19.3204444,17.1868597 17.1551111,19.3505568 14.5064444,19.3505568 Z M23.9411111,6.80111359 C23.9411111,7.76347439 23.1677778,8.53207127 22.214,8.53207127 C21.2537778,8.53207127 20.4868889,7.75701559 20.4868889,6.80111359 C20.4868889,5.84521158 21.2602222,5.0701559 22.214,5.0701559 C23.1677778,5.0701559 23.9411111,5.84521158 23.9411111,6.80111359 Z M28.8453333,8.55790646 C28.7357778,6.23919822 28.2073333,4.18530067 26.5124444,2.49309577 C24.824,0.800890869 22.7746667,0.271269488 20.4611111,0.155011136 C18.0766667,0.019376392 10.9297778,0.019376392 8.54533333,0.155011136 C6.23822222,0.26481069 4.18888889,0.794432071 2.494,2.48663697 C0.799111111,4.17884187 0.277111111,6.23273942 0.161111111,8.55144766 C0.0257777778,10.9412027 0.0257777778,18.1040089 0.161111111,20.4937639 C0.270666667,22.8124722 0.799111111,24.8663697 2.494,26.5585746 C4.18888889,28.2507795 6.23177778,28.7804009 8.54533333,28.8966592 C10.9297778,29.032294 18.0766667,29.032294 20.4611111,28.8966592 C22.7746667,28.7868597 24.824,28.2572383 26.5124444,26.5585746 C28.2008889,24.8663697 28.7293333,22.8124722 28.8453333,20.4937639 C28.9806667,18.1040089 28.9806667,10.9476615 28.8453333,8.55790646 Z M25.7648889,23.0579065 C25.2622222,24.3238307 24.2891111,25.2991091 23.0195556,25.8093541 C21.1184444,26.5650334 16.6073333,26.3906459 14.5064444,26.3906459 C12.4055556,26.3906459 7.888,26.5585746 5.99333333,25.8093541 C4.73022222,25.3055679 3.75711111,24.3302895 3.248,23.0579065 C2.494,21.1525612 2.668,16.6314031 2.668,14.5258352 C2.668,12.4202673 2.50044444,7.89265033 3.248,5.99376392 C3.75066667,4.72783964 4.72377778,3.75256125 5.99333333,3.24231626 C7.89444444,2.48663697 12.4055556,2.6610245 14.5064444,2.6610245 C16.6073333,2.6610245 21.1248889,2.49309577 23.0195556,3.24231626 C24.2826667,3.74610245 25.2557778,4.72138085 25.7648889,5.99376392 C26.5188889,7.89910913 26.3448889,12.4202673 26.3448889,14.5258352 C26.3448889,16.6314031 26.5188889,21.15902 25.7648889,23.0579065 Z" id="Shape"></path>
                </g>
            </g>
        </g>
    </g>
</svg>