<?xml version="1.0" encoding="UTF-8"?>
<svg width="29px" height="28px" viewBox="0 0 29 28" version="1.1" xmlns="http://www.w3.org/2000/svg" xmlns:xlink="http://www.w3.org/1999/xlink">
    <!-- Generator: Sketch 52.5 (67469) - http://www.bohemiancoding.com/sketch -->
    <title>linkedin</title>
    <desc>Created with Sketch.</desc>
    <g id="desktop" stroke="none" stroke-width="1" fill="none" fill-rule="evenodd">
        <g id="forside-(helst-denne)" transform="translate(-306.000000, -2237.000000)" fill="#FFFFFF" fill-rule="nonzero">
            <g id="Group-3" transform="translate(0.000000, 2183.000000)">
                <g id="linkedin" transform="translate(306.000000, 54.000000)">
                    <path d="M6.47817372,28 L0.477951002,28 L0.477951002,9.30625 L6.47817372,9.30625 L6.47817372,28 Z M3.47483296,6.75625 C1.55657016,6.75625 0,5.21875 0,3.3625 C0,1.50625 1.55657016,0 3.47483296,0 C5.39309577,0 6.94966592,1.50625 6.94966592,3.3625 C6.94966592,5.21875 5.39309577,6.75625 3.47483296,6.75625 Z M28.935412,28 L22.9481069,28 L22.9481069,18.9 C22.9481069,16.73125 22.9028953,13.95 19.8285078,13.95 C16.7089087,13.95 16.2309577,16.30625 16.2309577,18.74375 L16.2309577,28 L10.2371938,28 L10.2371938,9.30625 L15.9919822,9.30625 L15.9919822,11.85625 L16.0759465,11.85625 C16.8768374,10.3875 18.833853,8.8375 21.7532294,8.8375 C27.8244989,8.8375 28.9418708,12.70625 28.9418708,17.73125 L28.9418708,28 L28.935412,28 Z" id="Shape"></path>
                </g>
            </g>
        </g>
    </g>
</svg>