<?xml version="1.0" encoding="UTF-8"?>
<svg width="229px" height="35px" viewBox="0 0 229 35" version="1.1" xmlns="http://www.w3.org/2000/svg" xmlns:xlink="http://www.w3.org/1999/xlink">
    <!-- Generator: Sketch 51.3 (57544) - http://www.bohemiancoding.com/sketch -->
    <title>logo black</title>
    <desc>Created with Sketch.</desc>
    <defs></defs>
    <g id="Page-1" stroke="none" stroke-width="1" fill="none" fill-rule="evenodd">
        <g id="Homepage@2x" transform="translate(-32.000000, -34.000000)">
            <g id="logo-black" transform="translate(32.000000, 34.000000)">
                <g id="Group">
                    <g id="wordmark_black" transform="translate(47.795872, 5.833333)" fill="#1A1919">
                        <g id="logo_4-stripes">
                            <g id="Group-2">
                                <path d="M10.0091355,23.7857143 C8.09540416,23.7857143 6.28003223,23.4695027 4.56373242,22.8309394 C2.84671987,22.1893061 1.32713881,21.2268562 0,19.9551022 L3.2929008,15.7054329 C5.43257356,17.5420698 7.74188062,18.463842 10.2279494,18.463842 C11.0169627,18.463842 11.6227994,18.3333664 12.0383321,18.0578325 C12.4581413,17.779996 12.6634131,17.3924066 12.6634131,16.8912265 L12.6634131,16.8267562 C12.6634131,16.5872949 12.6113824,16.3716263 12.5123103,16.1851229 C12.4118127,16.0039919 12.2179449,15.824396 11.9499512,15.6424976 C11.6719791,15.4721117 11.3070516,15.3040284 10.8494666,15.142085 C10.3868925,14.9740017 9.79958724,14.8059183 9.06046643,14.6293924 C7.92220613,14.3446484 6.86947573,14.0330419 5.89514772,13.6938051 C4.91226673,13.3553359 4.06409531,12.9216962 3.34208048,12.3836759 C2.6207784,11.8456557 2.05057913,11.1756247 1.62934442,10.3812582 C1.21737545,9.58535658 1.00853996,8.594509 1.00853996,7.41025044 L1.00853996,7.34731512 C1.00853996,6.27511213 1.20098222,5.29040459 1.57446274,4.39396 C1.94794326,3.49905042 2.50246205,2.72233644 3.21734939,2.06612058 C3.94221522,1.41067222 4.81176911,0.899514606 5.82886206,0.542625278 C6.84809326,0.181898431 7.99490654,0 9.27999315,0 C11.1096201,0 12.737539,0.25788132 14.1744412,0.778248985 C15.6106306,1.29401163 16.9035574,2.06151556 18.0660512,3.07462074 L15.106717,7.59138137 C14.1316762,6.84460005 13.1245617,6.27971715 12.1003413,5.90057021 C11.0754081,5.51528324 10.0775594,5.32647727 9.1239011,5.32647727 C8.41471576,5.32647727 7.87659019,5.46616299 7.52449214,5.75090695 C7.1681176,6.0356509 6.99135582,6.37872516 6.99135582,6.80008482 L6.99135582,6.86455515 C6.99135582,7.129344 7.04481201,7.35575766 7.15813911,7.55530868 C7.27289171,7.7533247 7.45678098,7.9298506 7.73404038,8.09332894 C8.01058702,8.25527227 8.38976954,8.42335563 8.86802418,8.58529896 C9.34627882,8.74417227 9.95140279,8.91993067 10.6805451,9.09645657 C11.8986333,9.37659551 13.0076709,9.71122722 13.9898391,10.0965142 C14.9812731,10.4802662 15.8201788,10.941536 16.5086944,11.4887663 C17.2021993,12.0359966 17.7310591,12.6952825 18.0959866,13.4735315 C18.4651907,14.2502455 18.6497927,15.1735527 18.6497927,16.2434532 L18.6497927,16.3109935 C18.6497927,17.4883445 18.4402445,18.5421274 18.0197225,19.4592946 C17.5999133,20.3718568 17.021161,21.1593158 16.2642215,21.8009491 C15.5172604,22.451025 14.6070798,22.939925 13.5536367,23.2791617 C12.4944915,23.6176309 11.3106153,23.7857143 10.0091355,23.7857143" id="Fill-1"></path>
                                <polyline id="Fill-4" points="22.2325039 0.428571429 28.1555596 0.428571429 28.1555596 9.09179281 35.7658191 9.09179281 35.7658191 0.428571429 41.6931571 0.428571429 41.6931571 23.5714286 35.7658191 23.5714286 35.7658191 14.7784558 28.1555596 14.7784558 28.1555596 23.5714286 22.2325039 23.5714286 22.2325039 0.428571429"></polyline>
                                <path d="M56.8080728,18.2315614 C57.6342307,18.2315614 58.3874498,18.0675628 59.0720632,17.7372558 C59.7559544,17.4107985 60.3351316,16.9611498 60.8117611,16.4029386 C61.2840577,15.8424176 61.6581397,15.1833435 61.9253411,14.4388053 C62.1939869,13.6919573 62.3304762,12.9066119 62.3304762,12.0673703 L62.3304762,11.999615 C62.3304762,11.1649931 62.1939869,10.3711783 61.9253411,9.62818004 C61.6581397,8.87979211 61.2746695,8.21763819 60.7770972,7.65095762 C60.2845799,7.07965737 59.6967368,6.6223092 59.0077904,6.28122293 C58.3267879,5.93628693 57.5793461,5.76843861 56.7488552,5.76843861 C55.9190864,5.76843861 55.1716446,5.93628693 54.4985859,6.26274422 C53.8262494,6.5892015 53.2492387,7.03885021 52.763221,7.59552148 C52.2779254,8.15758237 51.9038434,8.81665651 51.6481967,9.55503513 C51.3932721,10.3080427 51.2575049,11.0933881 51.2575049,11.9310898 L51.2575049,11.999615 C51.2575049,12.834237 51.3932721,13.624202 51.6655287,14.37182 C51.9298414,15.1202079 52.3082564,15.7777421 52.7921076,16.3490424 C53.2817362,16.9203426 53.8645241,17.3792307 54.5455267,17.7187771 C55.2308622,18.0606333 55.9833592,18.2315614 56.8080728,18.2315614 Z M56.7618542,24 C55.0936507,24 53.5467711,23.6874018 52.1248262,23.0529659 C50.7043257,22.4300792 49.47881,21.5839081 48.4490013,20.5036733 C47.417026,19.4288281 46.6074779,18.1584165 46.016024,16.713227 C45.433236,15.2603381 45.1393145,13.7189054 45.1393145,12.0673703 L45.1393145,11.999615 C45.1393145,10.3550095 45.433236,8.79817779 46.016024,7.33373969 C46.6074779,5.87161143 47.4235255,4.59812005 48.4742771,3.5094158 C49.5300838,2.42225145 50.7635433,1.56376119 52.1840439,0.942414424 C53.6095995,0.317217927 55.1543126,0 56.8297378,0 C58.4972191,0 60.0375992,0.317217927 61.4631549,0.942414424 C62.8865441,1.56376119 64.1127819,2.41609188 65.1418685,3.49632671 C66.1709551,4.57117192 66.979781,5.8361939 67.5676241,7.28677296 C68.1540229,8.73350229 68.4515553,10.2810946 68.4515553,11.9310898 L68.4515553,11.999615 C68.4515553,13.6465304 68.1540229,15.2018222 67.5676241,16.6662603 C66.979781,18.1268487 66.1630112,19.40188 65.1079267,20.4905842 C64.060786,21.5746688 62.8201048,22.4300792 61.3981599,23.0529659 C59.9783816,23.6874018 58.4336685,24 56.7618542,24 Z" id="Fill-5"></path>
                                <path d="M81.8990313,11.5385331 C82.915438,11.5385331 83.7021725,11.2929322 84.2506755,10.7978689 C84.8020315,10.296627 85.0744999,9.63165121 85.0744999,8.79599056 L85.0744999,8.72648089 C85.0744999,7.803547 84.7891927,7.11694596 84.2221448,6.66127148 C83.6501039,6.20636934 82.864796,5.98857238 81.8690741,5.98857238 L77.9910367,5.98857238 L77.9910367,11.5385331 L81.8990313,11.5385331 Z M72.0673472,0.428571429 L82.1757793,0.428571429 C83.8220015,0.428571429 85.2178667,0.647140712 86.3598085,1.08968559 C87.495331,1.53145813 88.4232925,2.15009416 89.1337072,2.93555338 C90.3976179,4.26473266 91.0331396,6.06117137 91.0331396,8.33182046 L91.0331396,8.40364711 C91.0331396,10.1869562 90.6301432,11.6574718 89.8398424,12.8267789 C89.045262,13.9960859 87.9739337,14.8919883 86.6344167,15.5059903 L91.7307155,23.5714286 L84.8904767,23.5714286 L80.5866185,16.5663989 L77.9910367,16.5663989 L77.9910367,23.5714286 L72.0673472,23.5714286 L72.0673472,0.428571429 Z" id="Fill-6"></path>
                                <polyline id="Fill-7" points="100.440756 6.05190341 94.0640552 6.05190341 94.0640552 0.428571429 112.713848 0.428571429 112.713848 6.05190341 106.33289 6.05190341 106.33289 23.5714286 100.440756 23.5714286 100.440756 6.05190341"></polyline>
                                <path d="M125.868093,24 C124.326123,24 122.879176,23.6966411 121.526533,23.1099419 C120.16957,22.5132335 118.991856,21.6832312 117.99483,20.6214751 C116.997805,19.5504796 116.210262,18.2900773 115.624285,16.8302589 C115.039027,15.3658208 114.740999,13.7774213 114.740999,12.0673703 L114.740999,11.999615 C114.740999,10.3265214 115.031109,8.76045042 115.607728,7.30217189 C116.183627,5.8462032 116.972609,4.57117192 117.978273,3.48246768 C118.987537,2.38914376 120.186847,1.53681306 121.570445,0.924705656 C122.955483,0.312598248 124.469378,0 126.11573,0 C127.225056,0 128.23072,0.112412178 129.134882,0.344166052 C130.041204,0.574380033 130.86402,0.906226942 131.619168,1.33816689 C132.365677,1.76394726 133.043079,2.27673158 133.650652,2.87036027 C134.256786,3.46475891 134.795252,4.10920407 135.26605,4.81216515 L130.766837,8.53947579 C130.151344,7.70485387 129.473223,7.04193 128.735352,6.56225338 C127.996761,6.07641718 127.098358,5.8361939 126.0567,5.8361939 C125.292194,5.8361939 124.601835,5.99557281 123.969066,6.31279073 C123.346374,6.63000866 122.807909,7.06117866 122.357987,7.61323025 C121.900867,8.16220205 121.551728,8.81665651 121.293293,9.55503513 C121.034859,10.3080427 120.908161,11.0933881 120.908161,11.9310898 L120.908161,11.999615 C120.908161,12.8573353 121.034859,13.6650091 121.293293,14.4226364 C121.551728,15.1748741 121.900867,15.8362581 122.357987,16.3806102 C122.807909,16.9357416 123.346374,17.3653717 123.969066,17.6872093 C124.601835,17.9998075 125.292194,18.1584165 126.0567,18.1584165 C126.606684,18.1584165 127.115635,18.0991306 127.580674,17.9682397 C128.040673,17.8334991 128.463959,17.6425524 128.846213,17.3884701 C129.223427,17.1297681 129.583364,16.8394983 129.921705,16.497642 C130.262205,16.1550159 130.592627,15.7777421 130.923049,15.3612011 L135.417943,18.7897725 C134.908992,19.5343107 134.34965,20.2272625 133.743516,20.8663181 C133.135942,21.5007539 132.449902,22.0543454 131.678197,22.5132335 C130.906492,22.9705816 130.045523,23.338616 129.09097,23.6065574 C128.133537,23.8691091 127.060925,24 125.868093,24" id="Fill-8"></path>
                                <path d="M148.631718,24 C147.113795,24 145.739622,23.7899683 144.524856,23.3722213 C143.30155,22.9498414 142.268964,22.3073914 141.418556,21.4386939 C140.558186,20.5699965 139.906326,19.4642413 139.451589,18.1314664 C138.989736,16.7948306 138.764859,15.2249979 138.764859,13.4196516 L138.764859,0.428571429 L144.79599,0.428571429 L144.79599,13.2883818 C144.79599,14.9655469 145.144693,16.2041164 145.853484,17.0079511 C146.558005,17.8133301 147.510177,18.2140892 148.698612,18.2140892 C149.885624,18.2140892 150.837796,17.8310901 151.536624,17.0527372 C152.245415,16.2898279 152.598388,15.0852341 152.598388,13.4559439 L152.598388,0.428571429 L158.630942,0.428571429 L158.630942,13.2567226 C158.630942,15.1300203 158.390409,16.7407784 157.913611,18.0998072 C157.435391,19.4511143 156.764316,20.5699965 155.901099,21.4386939 C155.037883,22.3073914 153.99391,22.9498414 152.765623,23.3722213 C151.532354,23.7899683 150.158181,24 148.631718,24" id="Fill-9"></path>
                                <polyline id="Fill-10" points="168.72478 6.05190341 162.350207 6.05190341 162.350207 0.428571429 181 0.428571429 181 6.05190341 174.614785 6.05190341 174.614785 23.5714286 168.72478 23.5714286 168.72478 6.05190341"></polyline>
                            </g>
                        </g>
                    </g>
                    <g id="logomark_black" fill="#000000">
                        <path d="M1.13686838e-13,19.4755846 L1.13686838e-13,1.13686838e-13 L18.62617,1.13686838e-13 L34,15.37383 L34,35 L15.5244154,35 L1.14352972e-13,19.4755846 Z M1.1812773e-13,27.1988027 L7.80119728,35 L1.13686838e-13,35 L1.13686838e-13,27.1988027 Z M26.3493881,1.13686838e-13 L34,1.13686838e-13 L34,7.65061189 L26.3493881,1.14575016e-13 Z M0.784409149,12.708221 L22.1282944,34.0521062 L25.9899034,30.1904971 L4.6460182,8.84661191 L0.784409149,12.708221 Z M8.29387189,4.94269279 L29.6327804,26.2816013 L33.4943894,22.4199922 L12.1554809,1.08108374 L8.29387189,4.94269279 Z" id="Rectangle-Copy-11"></path>
                    </g>
                </g>
            </g>
        </g>
    </g>
</svg>