<?xml version="1.0" encoding="UTF-8"?>
<svg width="32px" height="26px" viewBox="0 0 32 26" version="1.1" xmlns="http://www.w3.org/2000/svg" xmlns:xlink="http://www.w3.org/1999/xlink">
    <!-- Generator: Sketch 52.5 (67469) - http://www.bohemiancoding.com/sketch -->
    <title>twitter</title>
    <desc>Created with Sketch.</desc>
    <g id="desktop" stroke="none" stroke-width="1" fill="none" fill-rule="evenodd">
        <g id="forside-(helst-denne)" transform="translate(-509.000000, -2238.000000)" fill="#FFFFFF" fill-rule="nonzero">
            <g id="Group-3" transform="translate(0.000000, 2183.000000)">
                <g id="twitter" transform="translate(509.000000, 55.000000)">
                    <path d="M28.710625,6.48225 C28.7309375,6.7665 28.7309375,7.0508125 28.7309375,7.3350625 C28.7309375,16.0050625 22.132,25.9949375 10.0710625,25.9949375 C6.3553125,25.9949375 2.9035625,24.91875 0,23.0508125 C0.5279375,23.1116875 1.0355,23.132 1.58375,23.132 C4.6496875,23.132 7.4720625,22.0965 9.725875,20.33 C6.842625,20.2690625 4.426375,18.38075 3.593875,15.78175 C4,15.842625 4.4060625,15.88325 4.8325,15.88325 C5.4213125,15.88325 6.0101875,15.802 6.558375,15.6599375 C3.5533125,15.05075 1.2994375,12.4111875 1.2994375,9.223375 L1.2994375,9.1421875 C2.1725,9.6295 3.1878125,9.9340625 4.263875,9.974625 C2.497375,8.7969375 1.3400625,6.7868125 1.3400625,4.5126875 C1.3400625,3.2944375 1.664875,2.1776875 2.2334375,1.2030625 C5.461875,5.18275 10.3146875,7.7816875 15.75625,8.066 C15.65475,7.5786875 15.5938125,7.071125 15.5938125,6.5635 C15.5938125,2.94925 18.5176875,0.005125 22.1521875,0.005125 C24.0405,0.005125 25.7460625,0.797 26.9440625,2.0761875 C28.42625,1.7919375 29.8475625,1.2436875 31.1065,0.4924375 C30.619125,2.0153125 29.583625,3.2945 28.22325,4.106625 C29.5430625,3.9645625 30.82225,3.599 31.999875,3.0914375 C31.106625,4.390875 29.9898125,5.5481875 28.710625,6.48225 Z" id="Shape"></path>
                </g>
            </g>
        </g>
    </g>
</svg>